<svg xmlns="http://www.w3.org/2000/svg" viewBox="0 0 1200 630" fill="none">
  <rect width="1200" height="630" rx="40" fill="#09130F"/>
  <rect x="54" y="54" width="1092" height="522" rx="32" fill="#0E1C17" stroke="#1D3B2C"/>
  <rect x="96" y="122" width="458" height="338" rx="28" fill="#F7FFFA"/>
  <rect x="130" y="168" width="290" height="28" rx="14" fill="#C5F5DD"/>
  <rect x="130" y="224" width="356" height="22" rx="11" fill="#DDFBEA"/>
  <rect x="130" y="266" width="324" height="22" rx="11" fill="#DDFBEA"/>
  <rect x="130" y="308" width="228" height="22" rx="11" fill="#DDFBEA"/>
  <rect x="130" y="362" width="168" height="54" rx="18" fill="#00C16A"/>
  <rect x="602" y="142" width="504" height="72" rx="24" fill="#0F281C"/>
  <text x="634" y="189" fill="#EFFDF5" font-family="Arial, sans-serif" font-size="34" font-weight="700">Text Dictator</text>
  <text x="602" y="280" fill="#C5F5DD" font-family="Arial, sans-serif" font-size="68" font-weight="700">Dictate any text</text>
  <text x="602" y="348" fill="#8DB8A3" font-family="Arial, sans-serif" font-size="34">Letters, sentences, voices, repeats,</text>
  <text x="602" y="392" fill="#8DB8A3" font-family="Arial, sans-serif" font-size="34">and karaoke-style playback tracking.</text>
  <circle cx="990" cy="466" r="82" fill="#00C16A" fill-opacity=".18"/>
  <path d="M950 468a40 40 0 1 0 80 0 40 40 0 1 0-80 0Z" stroke="#00C16A" stroke-width="18"/>
  <path d="M1062 420l36 48-36 48" stroke="#EFFDF5" stroke-linecap="round" stroke-linejoin="round" stroke-width="20"/>
</svg>
